<?xml version="1.0" standalone="no"?>
<!DOCTYPE svg PUBLIC "-//W3C//DTD SVG 20010904//EN"
 "http://www.w3.org/TR/2001/REC-SVG-20010904/DTD/svg10.dtd">
<svg version="1.0" xmlns="http://www.w3.org/2000/svg"
 width="300.000000pt" height="300.000000pt" viewBox="0 0 300.000000 300.000000"
 preserveAspectRatio="xMidYMid meet">
<metadata>
Created by potrace 1.10, written by Peter Selinger 2001-2011
</metadata>
<g transform="translate(0.000000,300.000000) scale(0.100000,-0.100000)"
fill="#000000" stroke="none">
<path d="M60 1528 l0 -738 130 0 130 0 0 305 c0 276 -6 348 -24 283 -3 -13 -6
-136 -6 -275 0 -215 -2 -254 -16 -267 -11 -12 -35 -16 -89 -16 -63 0 -76 3
-84 19 -7 12 -11 260 -11 694 0 581 2 676 14 687 11 9 81 11 278 8 290 -5 304
-8 404 -77 97 -66 154 -165 161 -283 9 -131 -28 -235 -116 -324 -41 -42 -147
-104 -178 -104 -23 0 -45 -45 -34 -71 16 -41 320 -475 357 -510 20 -19 24 -20
50 -5 16 8 61 44 99 80 39 36 79 66 90 67 11 0 36 1 55 1 65 -1 205 29 260 56
68 34 82 44 150 112 271 269 160 714 -209 845 -22 7 -83 15 -135 16 -53 1
-106 4 -119 6 -29 6 -200 170 -192 184 4 5 82 9 178 9 299 0 431 -43 595 -192
48 -43 132 -144 132 -159 0 -5 11 -27 25 -49 14 -22 23 -40 21 -40 -2 0 5 -24
17 -52 29 -75 36 -287 13 -378 -22 -86 -68 -183 -114 -239 -136 -169 -259
-252 -424 -285 -100 -21 -686 -23 -710 -3 -8 6 -30 35 -49 62 -18 28 -36 52
-41 53 -4 2 -8 8 -8 14 0 6 -31 54 -68 107 -38 53 -101 144 -140 203 -64 96
-108 145 -120 133 -6 -6 50 -93 189 -295 66 -96 143 -209 171 -251 l51 -75
336 3 c185 2 350 6 366 8 219 32 433 198 545 424 47 94 68 188 68 306 0 113
-8 155 -46 260 -55 153 -199 315 -352 394 -128 67 -215 81 -503 81 l-239 0
133 -127 132 -128 131 -5 c114 -5 138 -9 188 -32 182 -84 284 -233 292 -425 5
-105 -11 -175 -57 -252 -61 -101 -192 -204 -288 -227 -19 -4 -41 -10 -49 -12
-8 -2 -60 -7 -115 -9 l-100 -5 -93 -85 c-51 -47 -94 -84 -96 -82 -1 2 -49 73
-107 157 -57 84 -137 200 -176 257 -40 58 -73 109 -73 113 0 5 14 12 30 16 98
19 214 111 262 208 73 146 75 277 6 413 -32 61 -128 149 -205 187 l-68 33
-303 5 -302 5 0 -737z"/>
<path d="M1924 2142 l128 -130 127 -4 c115 -4 133 -7 204 -37 60 -26 93 -48
140 -95 68 -67 75 -76 113 -156 60 -125 49 -318 -24 -434 -36 -58 -131 -147
-191 -180 -74 -40 -139 -55 -261 -63 l-104 -6 -86 -82 c-47 -45 -107 -103
-135 -129 -27 -26 -42 -46 -33 -42 10 3 127 6 261 7 319 1 391 18 552 130 156
108 273 284 309 467 26 134 18 257 -26 386 -76 224 -296 421 -528 472 -55 12
-143 18 -325 21 l-250 4 129 -129z m509 50 c162 -56 308 -183 396 -344 91
-166 96 -436 11 -613 -29 -61 -38 -73 -122 -176 -99 -120 -255 -205 -420 -228
-96 -13 -385 -14 -393 -1 -7 12 108 127 160 161 20 12 48 19 83 19 145 0 271
42 369 122 149 124 208 270 185 463 -21 179 -140 339 -302 405 -30 12 -62 25
-70 29 -8 4 -67 9 -130 10 -132 3 -133 3 -223 97 -99 105 -112 97 144 92 218
-5 226 -6 312 -36z"/>
<path d="M313 2017 c-22 -18 -23 -22 -23 -192 l0 -175 25 -16 c36 -24 275 -17
325 10 138 72 163 244 50 339 -44 37 -93 48 -232 50 -105 2 -125 -1 -145 -16z
m323 -36 c102 -46 123 -199 37 -277 -45 -42 -87 -51 -233 -53 l-120 -2 0 175
0 176 138 0 c112 0 144 -4 178 -19z"/>
</g>
</svg>
